<?xml version="1.0" encoding="utf-8"?>
<!-- Generator: Adobe Illustrator 26.2.1, SVG Export Plug-In . SVG Version: 6.00 Build 0)  -->
<svg version="1.1" id="uuid-8fda14aa-df7a-4006-b30d-babdece19479"
	 xmlns="http://www.w3.org/2000/svg" xmlns:xlink="http://www.w3.org/1999/xlink" x="0px" y="0px" viewBox="0 0 512 512"
	 style="enable-background:new 0 0 512 512;" xml:space="preserve">
<style type="text/css">
	.st0{fill:#FC5D0D;}
</style>
<g>
	<path class="st0" d="M256,231.2c26.8,0,48.5-21.8,48.5-48.5s-21.8-48.5-48.5-48.5s-48.5,21.8-48.5,48.5S229.2,231.2,256,231.2
		L256,231.2z"/>
	<polygon class="st0" points="314.4,415.4 197.6,415.4 197.6,274.9 212.3,254.9 299.7,254.9 314.4,274.9 	"/>
	<path class="st0" d="M306.1,130.1c6.3-19.4,24.6-33.5,46.1-33.5c26.8,0,48.5,21.8,48.5,48.5s-21.8,48.5-48.5,48.5
		c-8.6,0-16.6-2.3-23.7-6.2c0.1-1.6,0.2-3.1,0.2-4.7C328.7,162,320,143.3,306.1,130.1L306.1,130.1z"/>
	<path class="st0" d="M111.3,145.1c0-26.8,21.8-48.5,48.5-48.5c21.5,0,39.8,14.1,46.1,33.5c-13.9,13.3-22.6,31.9-22.6,52.6
		c0,1.6,0.1,3.2,0.2,4.7c-7,3.9-15.1,6.2-23.7,6.2C133.1,193.6,111.3,171.8,111.3,145.1z"/>
	<path class="st0" d="M410.6,237.3v140.5h-72V267L312,230.7h-1.4c3.6-4.1,6.7-8.6,9.4-13.4h76L410.6,237.3L410.6,237.3z"/>
	<path class="st0" d="M173.4,377.8h-72V237.3l14.7-20h76c2.6,4.8,5.8,9.3,9.4,13.4H200L173.4,267V377.8L173.4,377.8z"/>
</g>
</svg>
