<?xml version="1.0" encoding="utf-8"?>
<!-- Generator: Adobe Illustrator 26.2.1, SVG Export Plug-In . SVG Version: 6.00 Build 0)  -->
<svg version="1.1" id="uuid-f10bb35b-d3cc-4234-8cc0-0971c77fa85b"
	 xmlns="http://www.w3.org/2000/svg" xmlns:xlink="http://www.w3.org/1999/xlink" x="0px" y="0px" viewBox="0 0 512 512"
	 style="enable-background:new 0 0 512 512;" xml:space="preserve">
<style type="text/css">
	.st0{fill:#FC5D0D;}
</style>
<g>
	<path class="st0" d="M428.7,143.1l-23.7,23.7l-23.7-23.7l23.7-23.7L428.7,143.1z M342.6,230.3l-20.1-20.1l-41.1,41.1
		c-2.9-0.9-6-1.4-9.3-1.4c-17,0-30.8,13.8-30.8,30.8s13.8,30.8,30.8,30.8s30.8-13.8,30.8-30.8c0-3.2-0.5-6.4-1.4-9.3L342.6,230.3
		L342.6,230.3z"/>
	<path class="st0" d="M208.1,233.3H84.8v-28.4h123.3L208.1,233.3L208.1,233.3z M177.3,267.7H54v28.4h123.3L177.3,267.7L177.3,267.7z
		 M208.1,330.5H84.8V359h123.3L208.1,330.5L208.1,330.5z"/>
	<path class="st0" d="M302.9,105.3h-64V65h64V105.3z M270.9,127.8c-45.3,0-86.2,19.7-114.4,51h38.6c21.2-15.6,47.4-24.9,75.7-24.9
		c70.6,0,128,57.4,128,128s-57.4,128-128,128c-25.3,0-48.9-7.4-68.8-20.2H161c28,28.5,66.9,46.2,109.9,46.2
		c85,0,154.1-69.1,154.1-154.1S355.9,127.8,270.9,127.8L270.9,127.8z"/>
</g>
</svg>
