<?xml version="1.0" encoding="utf-8"?>
<!-- Generator: Adobe Illustrator 26.2.1, SVG Export Plug-In . SVG Version: 6.00 Build 0)  -->
<svg version="1.1" id="uuid-cc84952a-85f3-46a1-bc7c-fe5e9358d46d"
	 xmlns="http://www.w3.org/2000/svg" xmlns:xlink="http://www.w3.org/1999/xlink" x="0px" y="0px" viewBox="0 0 512 512"
	 style="enable-background:new 0 0 512 512;" xml:space="preserve">
<style type="text/css">
	.st0{fill:#FC5D0D;}
</style>
<g>
	<path class="st0" d="M164.7,259.2v-6.5c0-11,6.5-18,20.4-18s20.4,7,20.4,18v6.5c0,11-6.5,18-20.4,18S164.7,270.2,164.7,259.2z
		 M235.6,259.2v-6.5c0-11,6.5-18,20.4-18c14,0,20.4,7,20.4,18v6.5c0,11-6.5,18-20.4,18S235.6,270.2,235.6,259.2z M306.4,259.2v-6.5
		c0-11,6.5-18,20.4-18s20.4,7,20.4,18v6.5c0,11-6.5,18-20.4,18S306.4,270.2,306.4,259.2z"/>
	<path class="st0" d="M112.6,368c-12.2,0-21.2-7-21.2-22.4v-56.4c0-13.5-8.2-19.7-21.7-19.7v-26.9c13.5,0,21.7-6.2,21.7-19.7v-56.4
		c0-15.5,9-22.4,21.2-22.4h26.2V168h-17v57.4c0,20.7-11.7,28.9-33.7,28.9v3.5c21.9,0,33.7,8.2,33.7,28.9V344h17V368
		C138.8,368,112.6,368,112.6,368z M399.4,144c12.2,0,21.2,7,21.2,22.4v56.4c0,13.5,8.2,19.7,21.7,19.7v26.9
		c-13.5,0-21.7,6.2-21.7,19.7v56.4c0,15.5-9,22.4-21.2,22.4h-26.2V344h17v-57.4c0-20.7,11.7-28.9,33.7-28.9v-3.5
		c-21.9,0-33.7-8.2-33.7-28.9V168h-17V144L399.4,144L399.4,144z"/>
</g>
</svg>
